<svg viewBox="0 0 24 24">
  <path d="M4 3C3.448 3 3 3.448 3 4L3 8C3 8.552 3.448 9 4 9L8 9C8.552 9 9 8.552 9 8L9 4C9 3.448 8.552 3 8 3L4 3 z M 11 3L11 5L13 5L13 3L11 3 z M 16 3C15.448 3 15 3.448 15 4L15 8C15 8.552 15.448 9 16 9L20 9C20.552 9 21 8.552 21 8L21 4C21 3.448 20.552 3 20 3L16 3 z M 5 5L7 5L7 7L5 7L5 5 z M 17 5L19 5L19 7L17 7L17 5 z M 11 7L11 9L13 9L13 7L11 7 z M 3 11L3 13L5 13L5 11L3 11 z M 7 11L7 13L9 13L9 11L7 11 z M 11 11L11 13L13 13L13 11L11 11 z M 13 13L13 15L15 15L15 13L13 13 z M 15 13L17 13L17 11L15 11L15 13 z M 17 13L17 15L19 15L19 13L17 13 z M 19 13L21 13L21 11L19 11L19 13 z M 19 15L19 17L21 17L21 15L19 15 z M 19 17L17 17L17 19L19 19L19 17 z M 19 19L19 21L21 21L21 19L19 19 z M 17 19L15 19L15 21L17 21L17 19 z M 15 19L15 17L13 17L13 19L15 19 z M 13 19L11 19L11 21L13 21L13 19 z M 13 17L13 15L11 15L11 17L13 17 z M 15 17L17 17L17 15L15 15L15 17 z M 4 15C3.448 15 3 15.448 3 16L3 20C3 20.552 3.448 21 4 21L8 21C8.552 21 9 20.552 9 20L9 16C9 15.448 8.552 15 8 15L4 15 z M 5 17L7 17L7 19L5 19L5 17 z" fill="#5B5B5B" />
</svg>