<svg version="1.1" viewBox="0 0 178.35 159.39" xmlns="http://www.w3.org/2000/svg">
 <path d="m65.793 108.64c-1.2675-0.46449-1.6738-0.79147-2.1658-1.743-0.32717-0.63267-0.38335-4.5854-0.38335-26.976 0-24.74 0.027-26.281 0.4743-27.059 0.52569-0.91427 1.7895-1.6163 3.3092-1.8383 0.90785-0.1326 2.5136 0.61682 17.859 8.335 9.274 4.6644 18.052 9.1078 19.508 9.8742 1.4552 0.76641 5.5387 2.8493 9.0744 4.6287 3.7585 1.8915 6.5764 3.4707 6.7844 3.8023 0.19572 0.31189 0.50227 0.98745 0.68122 1.5012 0.28956 0.83135 0.25631 1.0775-0.30211 2.2364-0.56307 1.1686-0.84473 1.4136-2.7442 2.3868-22.527 11.543-50.036 25.27-50.595 25.248-0.25823-0.0103-0.93325-0.18859-1.5-0.3963z" style="fill:#1cd5ff;paint-order:stroke markers fill;stroke-dasharray:1.4, 61;stroke-linecap:round;stroke-linejoin:round;stroke-miterlimit:5.5;stroke-width:33;stroke:#f00">
  <animate attributeName="stroke-dashoffset" begin="0.9s" dur="1s" repeatCount="indefinite" values="0;63"/>
 </path>
 <path d="m18.569 160.83c-0.0285-0.0285-0.88173-0.17932-1.8962-0.33531-1.0144-0.15597-2.0826-0.39109-2.3736-0.5225-0.29104-0.1314-1.184-0.52706-1.9844-0.87926-4.1576-1.8295-7.3825-4.9681-9.4625-9.2092-0.98508-2.0086-1.435-3.3008-1.6521-4.7447-0.39698-2.6407-0.35785-22.188 0.0454-22.674 0.22329-0.26905 2.0188-0.34464 8.1865-0.34464h7.9004l2.3906-2.2906v-77.411l-2.0544-2.0544h-8.2176c-4.5197 0-8.2782-0.0981-8.3524-0.21807-0.0741-0.11993-0.14985-4.9122-0.16828-10.649-0.0315-9.8096 0.18349-13.836 0.783-14.665 0.1053-0.14552 0.40627-0.85989 0.66883-1.5875 1.3283-3.6809 5.119-7.7335 9.0064-9.6287 3.2441-1.5815 3.2152-1.571 5.1594-1.8747 2.4166-0.37742 145.79-0.36415 147.24 0.0136 0.58209 0.15125 1.5207 0.39147 2.0859 0.53382 4.5471 1.1454 9.9535 6.0094 11.834 10.647 0.30498 0.75206 0.65676 1.6055 0.78172 1.8966 0.66539 1.5496 0.81109 4.242 0.77946 14.403-0.0183 5.8846-0.093 10.796-0.16604 10.914-0.073 0.11812-3.8306 0.21477-8.3503 0.21477h-8.2176l-2.0544 2.0544v77.411l2.3905 2.2905h7.9005c6.1529 0 7.9635 0.0759 8.1854 0.34338 0.35886 0.4324 0.42357 21.002 0.0709 22.543-0.33734 1.4744-1.2672 4.5425-1.5008 4.9517-2.2721 3.9808-5.3001 6.9843-8.7121 8.6413-1.3097 0.63605-2.5688 1.2488-2.7979 1.3618-1.5672 0.77227-5.3422 0.81542-75.872 0.86744-39.339 0.029-71.549 0.0295-71.577 1e-3zm13.854-19.395v-5.8208h-11.642v11.642h11.642zm31.75 0v-5.8208h-11.642v11.642h11.642zm31.75 0v-5.8208h-11.642v11.642h11.642zm31.75 0v-5.8208h-11.642v11.642h11.642zm31.75 0v-5.8208h-11.642v11.642h11.642zm-20.077-20.606 1.0272-1.0272v-77.383l-2.0544-2.0544h-96.433l-2.0544 2.0544v77.383l2.0544 2.0544h96.433zm-106.92-100.04v-5.8208h-11.642v11.642h11.642zm31.75 0v-5.8208h-11.642v11.642h11.642zm31.75 0v-5.8208h-11.642v11.642h11.642zm31.75 0v-5.8208h-11.642v11.642h11.642zm31.75 0v-5.8208h-11.642v11.642h11.642z" style="fill:#6d7b89">
  <animate attributeName="opacity" begin="0.9s" dur="0.07s" keyTimes="0;0.45;0.55;1" repeatCount="indefinite" values="1;1;0;0"/>
 </path>
</svg>
