<svg viewBox="0 0 280 129" xmlns="http://www.w3.org/2000/svg"><path d="M65.793 108.64c-1.268-.464-1.674-.791-2.166-1.743-.327-.633-.383-4.585-.383-26.976 0-24.74.027-26.281.474-27.059.526-.914 1.79-1.616 3.31-1.838.907-.133 2.513.617 17.858 8.335 9.274 4.664 18.052 9.108 19.508 9.874 1.456.766 5.54 2.85 9.075 4.629 3.758 1.891 6.576 3.47 6.784 3.802.196.312.502.987.681 1.501.29.831.257 1.078-.302 2.237-.563 1.168-.844 1.413-2.744 2.386-22.527 11.543-50.036 25.27-50.595 25.248-.258-.01-.933-.188-1.5-.396z" fill="#1cd5ff" paint-order="stroke markers fill" stroke-dasharray="1.4,61" stroke-linecap="round" stroke-linejoin="round" stroke-miterlimit="5.5" stroke-width="33" stroke="red"><animate xmlns="http://www.w3.org/2000/svg" begin="0.9s" repeatCount="indefinite" attributeName="stroke-dashoffset" values="0;63" dur="1s"/></path><path d="M18.569 160.83c-.029-.029-.882-.18-1.896-.335-1.015-.156-2.083-.391-2.374-.523-.29-.131-1.184-.527-1.984-.88-4.158-1.829-7.383-4.967-9.463-9.208-.985-2.009-1.435-3.301-1.652-4.745-.397-2.64-.358-22.188.046-22.674.223-.269 2.018-.345 8.186-.345h7.9l1.196-1.145 1.195-1.145V42.419l-2.054-2.055H9.45c-4.52 0-8.278-.098-8.352-.218-.074-.12-.15-4.912-.169-10.649-.031-9.81.184-13.836.783-14.665.106-.145.407-.86.67-1.587C3.71 9.564 7.5 5.51 11.388 3.616c3.244-1.581 3.215-1.57 5.159-1.875 2.417-.377 145.79-.364 147.24.014.582.151 1.52.391 2.086.534 4.547 1.145 9.953 6.01 11.834 10.647.305.752.657 1.605.782 1.896.665 1.55.81 4.242.78 14.403-.02 5.885-.094 10.796-.167 10.914-.073.119-3.83.215-8.35.215h-8.218l-2.054 2.055v77.41l2.39 2.291h7.9c6.154 0 7.964.076 8.186.343.36.433.424 21.002.071 22.543-.337 1.475-1.267 4.543-1.5 4.952-2.273 3.981-5.3 6.984-8.713 8.641l-2.798 1.362c-1.567.773-5.342.816-75.872.868-39.339.029-71.549.03-71.577 0zm13.854-19.395v-5.82H20.781v11.641h11.642zm31.75 0v-5.82H52.531v11.641h11.642zm31.75 0v-5.82H84.281v11.641h11.642zm31.75 0v-5.82h-11.642v11.641h11.642zm31.75 0v-5.82h-11.642v11.641h11.642zm-20.077-20.606l1.027-1.027V42.419l-2.054-2.055H41.886L39.83 42.42v77.383l2.055 2.054h96.433zM32.426 20.789v-5.82H20.784V26.61h11.642zm31.75 0v-5.82H52.534V26.61h11.642zm31.75 0v-5.82H84.284V26.61h11.642zm31.75 0v-5.82h-11.642V26.61h11.642zm31.75 0v-5.82h-11.642V26.61h11.642z" fill="#6d7b89"><animate xmlns="http://www.w3.org/2000/svg" attributeName="opacity" begin="0.9s" values="1;1;0;0" repeatCount="indefinite" keyTimes="0;0.45;0.55;1" dur="0.07s"/></path></svg>